<?xml version="1.0" encoding="UTF-8"?>
<svg xmlns="http://www.w3.org/2000/svg" xmlns:xlink="http://www.w3.org/1999/xlink" width="278.37" height="178.742" viewBox="0 0 278.37 178.742">
<defs>
<clipPath id="clip-0">
<path clip-rule="nonzero" d="M 194 169 L 204 169 L 204 178.742188 L 194 178.742188 Z M 194 169 "/>
</clipPath>
<clipPath id="clip-1">
<path clip-rule="nonzero" d="M 188 163 L 210 163 L 210 178.742188 L 188 178.742188 Z M 188 163 "/>
</clipPath>
<clipPath id="clip-2">
<path clip-rule="nonzero" d="M 268 129 L 278.371094 129 L 278.371094 139 L 268 139 Z M 268 129 "/>
</clipPath>
<clipPath id="clip-3">
<path clip-rule="nonzero" d="M 263 123 L 278.371094 123 L 278.371094 145 L 263 145 Z M 263 123 "/>
</clipPath>
</defs>
<path fill-rule="nonzero" fill="rgb(43.528748%, 3.921509%, 9.803772%)" fill-opacity="1" stroke-width="0.3985" stroke-linecap="butt" stroke-linejoin="miter" stroke="rgb(0%, 0%, 0%)" stroke-opacity="1" stroke-miterlimit="10" d="M 4.696156 0.00046875 C 4.696156 2.594219 2.594594 4.695781 0.00084375 4.695781 C -2.592906 4.695781 -4.694469 2.594219 -4.694469 0.00046875 C -4.694469 -2.593281 -2.592906 -4.694844 0.00084375 -4.694844 C 2.594594 -4.694844 4.696156 -2.593281 4.696156 0.00046875 Z M 4.696156 0.00046875 " transform="matrix(1, 0, 0, -1, 64.464, 4.895)"/>
<path fill-rule="nonzero" fill="rgb(43.528748%, 3.921509%, 9.803772%)" fill-opacity="1" stroke-width="0.3985" stroke-linecap="butt" stroke-linejoin="miter" stroke="rgb(0%, 0%, 0%)" stroke-opacity="1" stroke-miterlimit="10" d="M -20.210094 -49.605 C -20.210094 -47.01125 -22.311656 -44.909688 -24.905406 -44.909688 C -27.499156 -44.909688 -29.604625 -47.01125 -29.604625 -49.605 C -29.604625 -52.19875 -27.499156 -54.304219 -24.905406 -54.304219 C -22.311656 -54.304219 -20.210094 -52.19875 -20.210094 -49.605 Z M -20.210094 -49.605 " transform="matrix(1, 0, 0, -1, 64.464, 4.895)"/>
<path fill-rule="nonzero" fill="rgb(43.528748%, 3.921509%, 9.803772%)" fill-opacity="1" stroke-width="0.3985" stroke-linecap="butt" stroke-linejoin="miter" stroke="rgb(0%, 0%, 0%)" stroke-opacity="1" stroke-miterlimit="10" d="M 64.887562 -79.495625 C 64.887562 -76.901875 62.786 -74.800313 60.19225 -74.800313 C 57.5985 -74.800313 55.496937 -76.901875 55.496937 -79.495625 C 55.496937 -82.089375 57.5985 -84.190938 60.19225 -84.190938 C 62.786 -84.190938 64.887562 -82.089375 64.887562 -79.495625 Z M 64.887562 -79.495625 " transform="matrix(1, 0, 0, -1, 64.464, 4.895)"/>
<path fill-rule="nonzero" fill="rgb(43.528748%, 3.921509%, 9.803772%)" fill-opacity="1" stroke-width="0.3985" stroke-linecap="butt" stroke-linejoin="miter" stroke="rgb(0%, 0%, 0%)" stroke-opacity="1" stroke-miterlimit="10" d="M -5.264781 -134.706563 C -5.264781 -132.112813 -7.37025 -130.01125 -9.964 -130.01125 C -12.55775 -130.01125 -14.659313 -132.112813 -14.659313 -134.706563 C -14.659313 -137.300313 -12.55775 -139.401875 -9.964 -139.401875 C -7.37025 -139.401875 -5.264781 -137.300313 -5.264781 -134.706563 Z M -5.264781 -134.706563 " transform="matrix(1, 0, 0, -1, 64.464, 4.895)"/>
<path fill-rule="nonzero" fill="rgb(43.528748%, 3.921509%, 9.803772%)" fill-opacity="1" stroke-width="0.3985" stroke-linecap="butt" stroke-linejoin="miter" stroke="rgb(0%, 0%, 0%)" stroke-opacity="1" stroke-miterlimit="10" d="M -54.874156 -134.706563 C -54.874156 -132.112813 -56.975719 -130.01125 -59.569469 -130.01125 C -62.163219 -130.01125 -64.264781 -132.112813 -64.264781 -134.706563 C -64.264781 -137.300313 -62.163219 -139.401875 -59.569469 -139.401875 C -56.975719 -139.401875 -54.874156 -137.300313 -54.874156 -134.706563 Z M -54.874156 -134.706563 " transform="matrix(1, 0, 0, -1, 64.464, 4.895)"/>
<path fill-rule="nonzero" fill="rgb(43.528748%, 3.921509%, 9.803772%)" fill-opacity="1" stroke-width="0.3985" stroke-linecap="butt" stroke-linejoin="miter" stroke="rgb(0%, 0%, 0%)" stroke-opacity="1" stroke-miterlimit="10" d="M 94.571156 -59.569844 C 94.571156 -56.976094 92.465687 -54.874531 89.871937 -54.874531 C 87.278187 -54.874531 85.176625 -56.976094 85.176625 -59.569844 C 85.176625 -62.163594 87.278187 -64.265156 89.871937 -64.265156 C 92.465687 -64.265156 94.571156 -62.163594 94.571156 -59.569844 Z M 94.571156 -59.569844 " transform="matrix(1, 0, 0, -1, 64.464, 4.895)"/>
<g clip-path="url(#clip-0)">
<path fill-rule="nonzero" fill="rgb(43.528748%, 3.921509%, 9.803772%)" fill-opacity="1" d="M 203.867188 173.847656 C 203.867188 171.253906 201.761719 169.152344 199.167969 169.152344 C 196.578125 169.152344 194.472656 171.253906 194.472656 173.847656 C 194.472656 176.441406 196.578125 178.542969 199.167969 178.542969 C 201.761719 178.542969 203.867188 176.441406 203.867188 173.847656 Z M 203.867188 173.847656 "/>
</g>
<g clip-path="url(#clip-1)">
<path fill="none" stroke-width="0.3985" stroke-linecap="butt" stroke-linejoin="miter" stroke="rgb(0%, 0%, 0%)" stroke-opacity="1" stroke-miterlimit="10" d="M 139.403188 -168.952656 C 139.403188 -166.358906 137.297719 -164.257344 134.703969 -164.257344 C 132.114125 -164.257344 130.008656 -166.358906 130.008656 -168.952656 C 130.008656 -171.546406 132.114125 -173.647969 134.703969 -173.647969 C 137.297719 -173.647969 139.403188 -171.546406 139.403188 -168.952656 Z M 139.403188 -168.952656 " transform="matrix(1, 0, 0, -1, 64.464, 4.895)"/>
</g>
<g clip-path="url(#clip-2)">
<path fill-rule="nonzero" fill="rgb(43.528748%, 3.921509%, 9.803772%)" fill-opacity="1" d="M 278.171875 133.996094 C 278.171875 131.402344 276.070312 129.300781 273.476562 129.300781 C 270.882812 129.300781 268.78125 131.402344 268.78125 133.996094 C 268.78125 136.589844 270.882812 138.695312 273.476562 138.695312 C 276.070312 138.695312 278.171875 136.589844 278.171875 133.996094 Z M 278.171875 133.996094 "/>
</g>
<g clip-path="url(#clip-3)">
<path fill="none" stroke-width="0.3985" stroke-linecap="butt" stroke-linejoin="miter" stroke="rgb(0%, 0%, 0%)" stroke-opacity="1" stroke-miterlimit="10" d="M 213.707875 -129.101094 C 213.707875 -126.507344 211.606313 -124.405781 209.012563 -124.405781 C 206.418813 -124.405781 204.31725 -126.507344 204.31725 -129.101094 C 204.31725 -131.694844 206.418813 -133.800313 209.012563 -133.800313 C 211.606313 -133.800313 213.707875 -131.694844 213.707875 -129.101094 Z M 213.707875 -129.101094 " transform="matrix(1, 0, 0, -1, 64.464, 4.895)"/>
</g>
<path fill-rule="nonzero" fill="rgb(43.528748%, 3.921509%, 9.803772%)" fill-opacity="1" stroke-width="0.3985" stroke-linecap="butt" stroke-linejoin="miter" stroke="rgb(0%, 0%, 0%)" stroke-opacity="1" stroke-miterlimit="10" d="M 184.028188 0.00046875 C 184.028188 2.594219 181.926625 4.695781 179.332875 4.695781 C 176.739125 4.695781 174.633656 2.594219 174.633656 0.00046875 C 174.633656 -2.593281 176.739125 -4.694844 179.332875 -4.694844 C 181.926625 -4.694844 184.028188 -2.593281 184.028188 0.00046875 Z M 184.028188 0.00046875 " transform="matrix(1, 0, 0, -1, 64.464, 4.895)"/>
<path fill="none" stroke-width="0.3985" stroke-linecap="butt" stroke-linejoin="miter" stroke="rgb(0%, 0%, 0%)" stroke-opacity="1" stroke-miterlimit="10" d="M -2.198375 -4.374531 L -22.710094 -45.233906 " transform="matrix(1, 0, 0, -1, 64.464, 4.895)"/>
<path fill="none" stroke-width="0.3985" stroke-linecap="butt" stroke-linejoin="miter" stroke="rgb(0%, 0%, 0%)" stroke-opacity="1" stroke-miterlimit="10" d="M 10.168812 -84.683125 L -21.444469 -53.069844 " transform="matrix(1, 0, 0, -1, 64.464, 4.895)"/>
<path fill="none" stroke-width="0.3985" stroke-linecap="butt" stroke-linejoin="miter" stroke="rgb(0%, 0%, 0%)" stroke-opacity="1" stroke-miterlimit="10" d="M 10.168812 -84.683125 L 55.321156 -79.999531 " transform="matrix(1, 0, 0, -1, 64.464, 4.895)"/>
<path fill="none" stroke-width="0.3985" stroke-linecap="butt" stroke-linejoin="miter" stroke="rgb(0%, 0%, 0%)" stroke-opacity="1" stroke-miterlimit="10" d="M 10.168812 -84.683125 L -8.135875 -130.163594 " transform="matrix(1, 0, 0, -1, 64.464, 4.895)"/>
<path fill="none" stroke-width="0.3985" stroke-linecap="butt" stroke-linejoin="miter" stroke="rgb(0%, 0%, 0%)" stroke-opacity="1" stroke-miterlimit="10" d="M -54.674938 -134.706563 L -14.858531 -134.706563 " transform="matrix(1, 0, 0, -1, 64.464, 4.895)"/>
<path fill="none" stroke-width="0.3985" stroke-linecap="butt" stroke-linejoin="miter" stroke="rgb(0%, 0%, 0%)" stroke-opacity="1" stroke-miterlimit="10" d="M 64.25475 -76.765156 L 85.809437 -62.296406 " transform="matrix(1, 0, 0, -1, 64.464, 4.895)"/>
<path fill="none" stroke-width="0.3985" stroke-linecap="butt" stroke-linejoin="miter" stroke="rgb(0%, 0%, 0%)" stroke-opacity="1" stroke-miterlimit="10" d="M 139.481313 -69.530781 L 94.672719 -60.534688 " transform="matrix(1, 0, 0, -1, 64.464, 4.895)"/>
<path fill="none" stroke-width="0.3985" stroke-linecap="butt" stroke-linejoin="miter" stroke="rgb(0%, 0%, 0%)" stroke-opacity="1" stroke-miterlimit="10" d="M 139.481313 -69.530781 L 159.407094 -129.101094 " transform="matrix(1, 0, 0, -1, 64.464, 4.895)"/>
<path fill="none" stroke-width="0.3985" stroke-linecap="butt" stroke-linejoin="miter" stroke="rgb(0%, 0%, 0%)" stroke-opacity="1" stroke-miterlimit="10" d="M 159.407094 -129.101094 L 137.286 -164.7925 " transform="matrix(1, 0, 0, -1, 64.464, 4.895)"/>
<path fill="none" stroke-width="0.3985" stroke-linecap="butt" stroke-linejoin="miter" stroke="rgb(0%, 0%, 0%)" stroke-opacity="1" stroke-miterlimit="10" d="M 159.407094 -129.101094 L 204.118031 -129.101094 " transform="matrix(1, 0, 0, -1, 64.464, 4.895)"/>
<path fill="none" stroke-width="0.3985" stroke-linecap="butt" stroke-linejoin="miter" stroke="rgb(0%, 0%, 0%)" stroke-opacity="1" stroke-miterlimit="10" d="M 139.481313 -69.530781 L 179.332875 0.00046875 " transform="matrix(1, 0, 0, -1, 64.464, 4.895)"/>
</svg>
