<?xml version="1.0" encoding="UTF-8"?>
<svg xmlns="http://www.w3.org/2000/svg" xmlns:xlink="http://www.w3.org/1999/xlink" width="139.661" height="110.011" viewBox="0 0 139.661 110.011">
<defs>
<clipPath id="clip-0">
<path clip-rule="nonzero" d="M 104 94 L 126 94 L 126 110.011719 L 104 110.011719 Z M 104 94 "/>
</clipPath>
<clipPath id="clip-1">
<path clip-rule="nonzero" d="M 54 94 L 76 94 L 76 110.011719 L 54 110.011719 Z M 54 94 "/>
</clipPath>
<clipPath id="clip-2">
<path clip-rule="nonzero" d="M 130 88 L 139.660156 88 L 139.660156 99 L 130 99 Z M 130 88 "/>
</clipPath>
<clipPath id="clip-3">
<path clip-rule="nonzero" d="M 124 83 L 139.660156 83 L 139.660156 104 L 124 104 Z M 124 83 "/>
</clipPath>
</defs>
<path fill-rule="nonzero" fill="rgb(43.528748%, 3.921509%, 9.803772%)" fill-opacity="1" stroke-width="0.3985" stroke-linecap="butt" stroke-linejoin="miter" stroke="rgb(0%, 0%, 0%)" stroke-opacity="1" stroke-miterlimit="10" d="M 4.694625 -0.000375 C 4.694625 2.593375 2.593062 4.694938 -0.0006875 4.694938 C -2.594438 4.694938 -4.696 2.593375 -4.696 -0.000375 C -4.696 -2.594125 -2.594438 -4.695687 -0.0006875 -4.695687 C 2.593062 -4.695687 4.694625 -2.594125 4.694625 -0.000375 Z M 4.694625 -0.000375 " transform="matrix(1, 0, 0, -1, 24.821, 44.984)"/>
<path fill-rule="nonzero" fill="rgb(0%, 40.391541%, 47.059631%)" fill-opacity="1" stroke-width="0.3985" stroke-linecap="butt" stroke-linejoin="miter" stroke="rgb(0%, 0%, 0%)" stroke-opacity="1" stroke-miterlimit="10" d="M 34.464156 20.042594 C 34.464156 22.636344 32.362594 24.741813 29.768844 24.741813 C 27.175094 24.741813 25.073531 22.636344 25.073531 20.042594 C 25.073531 17.448844 27.175094 15.347281 29.768844 15.347281 C 32.362594 15.347281 34.464156 17.448844 34.464156 20.042594 Z M 34.464156 20.042594 " transform="matrix(1, 0, 0, -1, 24.821, 44.984)"/>
<path fill-rule="nonzero" fill="rgb(43.528748%, 3.921509%, 9.803772%)" fill-opacity="1" stroke-width="0.3985" stroke-linecap="butt" stroke-linejoin="miter" stroke="rgb(0%, 0%, 0%)" stroke-opacity="1" stroke-miterlimit="10" d="M 24.7415 -20.043344 C 24.7415 -17.449594 22.636031 -15.348031 20.042281 -15.348031 C 17.452437 -15.348031 15.346969 -17.449594 15.346969 -20.043344 C 15.346969 -22.637094 17.452437 -24.738656 20.042281 -24.738656 C 22.636031 -24.738656 24.7415 -22.637094 24.7415 -20.043344 Z M 24.7415 -20.043344 " transform="matrix(1, 0, 0, -1, 24.821, 44.984)"/>
<path fill-rule="nonzero" fill="rgb(43.528748%, 3.921509%, 9.803772%)" fill-opacity="1" stroke-width="0.3985" stroke-linecap="butt" stroke-linejoin="miter" stroke="rgb(0%, 0%, 0%)" stroke-opacity="1" stroke-miterlimit="10" d="M -5.504594 40.089469 C -5.504594 42.683219 -7.606156 44.784781 -10.199906 44.784781 C -12.793656 44.784781 -14.895219 42.683219 -14.895219 40.089469 C -14.895219 37.495719 -12.793656 35.39025 -10.199906 35.39025 C -7.606156 35.39025 -5.504594 37.495719 -5.504594 40.089469 Z M -5.504594 40.089469 " transform="matrix(1, 0, 0, -1, 24.821, 44.984)"/>
<path fill-rule="nonzero" fill="rgb(43.528748%, 3.921509%, 9.803772%)" fill-opacity="1" stroke-width="0.3985" stroke-linecap="butt" stroke-linejoin="miter" stroke="rgb(0%, 0%, 0%)" stroke-opacity="1" stroke-miterlimit="10" d="M 24.620406 40.089469 C 24.620406 42.683219 22.518844 44.784781 19.925094 44.784781 C 17.331344 44.784781 15.229781 42.683219 15.229781 40.089469 C 15.229781 37.495719 17.331344 35.39025 19.925094 35.39025 C 22.518844 35.39025 24.620406 37.495719 24.620406 40.089469 Z M 24.620406 40.089469 " transform="matrix(1, 0, 0, -1, 24.821, 44.984)"/>
<path fill-rule="nonzero" fill="rgb(0%, 40.391541%, 47.059631%)" fill-opacity="1" stroke-width="0.3985" stroke-linecap="butt" stroke-linejoin="miter" stroke="rgb(0%, 0%, 0%)" stroke-opacity="1" stroke-miterlimit="10" d="M -15.231156 -40.090219 C -15.231156 -37.496469 -17.332719 -35.391 -19.926469 -35.391 C -22.520219 -35.391 -24.621781 -37.496469 -24.621781 -40.090219 C -24.621781 -42.683969 -22.520219 -44.785531 -19.926469 -44.785531 C -17.332719 -44.785531 -15.231156 -42.683969 -15.231156 -40.090219 Z M -15.231156 -40.090219 " transform="matrix(1, 0, 0, -1, 24.821, 44.984)"/>
<path fill-rule="nonzero" fill="rgb(43.528748%, 3.921509%, 9.803772%)" fill-opacity="1" stroke-width="0.3985" stroke-linecap="butt" stroke-linejoin="miter" stroke="rgb(0%, 0%, 0%)" stroke-opacity="1" stroke-miterlimit="10" d="M 64.71025 -40.090219 C 64.71025 -37.496469 62.608688 -35.391 60.014938 -35.391 C 57.421188 -35.391 55.319625 -37.496469 55.319625 -40.090219 C 55.319625 -42.683969 57.421188 -44.785531 60.014938 -44.785531 C 62.608688 -44.785531 64.71025 -42.683969 64.71025 -40.090219 Z M 64.71025 -40.090219 " transform="matrix(1, 0, 0, -1, 24.821, 44.984)"/>
<path fill-rule="nonzero" fill="rgb(43.528748%, 3.921509%, 9.803772%)" fill-opacity="1" d="M 119.539062 105.117188 C 119.539062 102.523438 117.4375 100.421875 114.84375 100.421875 C 112.25 100.421875 110.144531 102.523438 110.144531 105.117188 C 110.144531 107.710938 112.25 109.8125 114.84375 109.8125 C 117.4375 109.8125 119.539062 107.710938 119.539062 105.117188 Z M 119.539062 105.117188 "/>
<g clip-path="url(#clip-0)">
<path fill="none" stroke-width="0.3985" stroke-linecap="butt" stroke-linejoin="miter" stroke="rgb(0%, 0%, 0%)" stroke-opacity="1" stroke-miterlimit="10" d="M 94.718063 -60.133187 C 94.718063 -57.539437 92.6165 -55.437875 90.02275 -55.437875 C 87.429 -55.437875 85.323531 -57.539437 85.323531 -60.133187 C 85.323531 -62.726937 87.429 -64.8285 90.02275 -64.8285 C 92.6165 -64.8285 94.718063 -62.726937 94.718063 -60.133187 Z M 94.718063 -60.133187 " transform="matrix(1, 0, 0, -1, 24.821, 44.984)"/>
</g>
<path fill-rule="nonzero" fill="rgb(0%, 40.391541%, 47.059631%)" fill-opacity="1" d="M 69.488281 105.117188 C 69.488281 102.523438 67.382812 100.421875 64.789062 100.421875 C 62.195312 100.421875 60.09375 102.523438 60.09375 105.117188 C 60.09375 107.710938 62.195312 109.8125 64.789062 109.8125 C 67.382812 109.8125 69.488281 107.710938 69.488281 105.117188 Z M 69.488281 105.117188 "/>
<g clip-path="url(#clip-1)">
<path fill="none" stroke-width="0.3985" stroke-linecap="butt" stroke-linejoin="miter" stroke="rgb(0%, 0%, 0%)" stroke-opacity="1" stroke-miterlimit="10" d="M 44.667281 -60.133187 C 44.667281 -57.539437 42.561813 -55.437875 39.968063 -55.437875 C 37.374313 -55.437875 35.27275 -57.539437 35.27275 -60.133187 C 35.27275 -62.726937 37.374313 -64.8285 39.968063 -64.8285 C 42.561813 -64.8285 44.667281 -62.726937 44.667281 -60.133187 Z M 44.667281 -60.133187 " transform="matrix(1, 0, 0, -1, 24.821, 44.984)"/>
</g>
<path fill-rule="nonzero" fill="rgb(0%, 40.391541%, 47.059631%)" fill-opacity="1" stroke-width="0.3985" stroke-linecap="butt" stroke-linejoin="miter" stroke="rgb(0%, 0%, 0%)" stroke-opacity="1" stroke-miterlimit="10" d="M 104.679 -20.043344 C 104.679 -17.449594 102.577438 -15.348031 99.983688 -15.348031 C 97.389938 -15.348031 95.288375 -17.449594 95.288375 -20.043344 C 95.288375 -22.637094 97.389938 -24.738656 99.983688 -24.738656 C 102.577438 -24.738656 104.679 -22.637094 104.679 -20.043344 Z M 104.679 -20.043344 " transform="matrix(1, 0, 0, -1, 24.821, 44.984)"/>
<path fill-rule="nonzero" fill="rgb(43.528748%, 3.921509%, 9.803772%)" fill-opacity="1" stroke-width="0.3985" stroke-linecap="butt" stroke-linejoin="miter" stroke="rgb(0%, 0%, 0%)" stroke-opacity="1" stroke-miterlimit="10" d="M 64.593063 20.042594 C 64.593063 22.636344 62.487594 24.741813 59.893844 24.741813 C 57.300094 24.741813 55.198531 22.636344 55.198531 20.042594 C 55.198531 17.448844 57.300094 15.347281 59.893844 15.347281 C 62.487594 15.347281 64.593063 17.448844 64.593063 20.042594 Z M 64.593063 20.042594 " transform="matrix(1, 0, 0, -1, 24.821, 44.984)"/>
<g clip-path="url(#clip-2)">
<path fill-rule="nonzero" fill="rgb(43.528748%, 3.921509%, 9.803772%)" fill-opacity="1" d="M 139.464844 93.375 C 139.464844 90.78125 137.359375 88.679688 134.765625 88.679688 C 132.171875 88.679688 130.070312 90.78125 130.070312 93.375 C 130.070312 95.96875 132.171875 98.070312 134.765625 98.070312 C 137.359375 98.070312 139.464844 95.96875 139.464844 93.375 Z M 139.464844 93.375 "/>
</g>
<g clip-path="url(#clip-3)">
<path fill="none" stroke-width="0.3985" stroke-linecap="butt" stroke-linejoin="miter" stroke="rgb(0%, 0%, 0%)" stroke-opacity="1" stroke-miterlimit="10" d="M 114.643844 -48.391 C 114.643844 -45.79725 112.538375 -43.695687 109.944625 -43.695687 C 107.350875 -43.695687 105.249313 -45.79725 105.249313 -48.391 C 105.249313 -50.98475 107.350875 -53.086312 109.944625 -53.086312 C 112.538375 -53.086312 114.643844 -50.98475 114.643844 -48.391 Z M 114.643844 -48.391 " transform="matrix(1, 0, 0, -1, 24.821, 44.984)"/>
</g>
<path fill="none" stroke-width="0.3985" stroke-linecap="butt" stroke-linejoin="miter" stroke="rgb(0%, 0%, 0%)" stroke-opacity="1" stroke-miterlimit="10" d="M 4.800094 -0.961312 L 95.182906 -19.082406 " transform="matrix(1, 0, 0, -1, 24.821, 44.984)"/>
<path fill="none" stroke-width="0.3985" stroke-linecap="butt" stroke-linejoin="miter" stroke="rgb(0%, 0%, 0%)" stroke-opacity="1" stroke-miterlimit="10" d="M 30.386031 15.187125 L 39.350875 -55.277719 " transform="matrix(1, 0, 0, -1, 24.821, 44.984)"/>
<path fill="none" stroke-width="0.3985" stroke-linecap="butt" stroke-linejoin="miter" stroke="rgb(0%, 0%, 0%)" stroke-opacity="1" stroke-miterlimit="10" d="M -8.992875 35.343375 L -1.207719 4.745719 " transform="matrix(1, 0, 0, -1, 24.821, 44.984)"/>
<path fill="none" stroke-width="0.3985" stroke-linecap="butt" stroke-linejoin="miter" stroke="rgb(0%, 0%, 0%)" stroke-opacity="1" stroke-miterlimit="10" d="M 22.08525 35.694938 L 27.612594 24.437125 " transform="matrix(1, 0, 0, -1, 24.821, 44.984)"/>
<path fill="none" stroke-width="0.3985" stroke-linecap="butt" stroke-linejoin="miter" stroke="rgb(0%, 0%, 0%)" stroke-opacity="1" stroke-miterlimit="10" d="M -15.551469 -37.894906 L 15.667281 -22.238656 " transform="matrix(1, 0, 0, -1, 24.821, 44.984)"/>
<path fill="none" stroke-width="0.3985" stroke-linecap="butt" stroke-linejoin="miter" stroke="rgb(0%, 0%, 0%)" stroke-opacity="1" stroke-miterlimit="10" d="M 3.46025 -3.461312 L 16.581344 -16.582406 " transform="matrix(1, 0, 0, -1, 24.821, 44.984)"/>
<path fill="none" stroke-width="0.3985" stroke-linecap="butt" stroke-linejoin="miter" stroke="rgb(0%, 0%, 0%)" stroke-opacity="1" stroke-miterlimit="10" d="M 21.198531 -15.285531 L 28.6165 15.288688 " transform="matrix(1, 0, 0, -1, 24.821, 44.984)"/>
<path fill="none" stroke-width="0.3985" stroke-linecap="butt" stroke-linejoin="miter" stroke="rgb(0%, 0%, 0%)" stroke-opacity="1" stroke-miterlimit="10" d="M 26.651656 16.269156 L -16.805375 -36.316781 " transform="matrix(1, 0, 0, -1, 24.821, 44.984)"/>
<path fill="none" stroke-width="0.3985" stroke-linecap="butt" stroke-linejoin="miter" stroke="rgb(0%, 0%, 0%)" stroke-opacity="1" stroke-miterlimit="10" d="M 22.221969 -24.426156 L 37.792281 -55.750375 " transform="matrix(1, 0, 0, -1, 24.821, 44.984)"/>
<path fill="none" stroke-width="0.3985" stroke-linecap="butt" stroke-linejoin="miter" stroke="rgb(0%, 0%, 0%)" stroke-opacity="1" stroke-miterlimit="10" d="M -5.824906 37.894156 L 25.393844 22.237906 " transform="matrix(1, 0, 0, -1, 24.821, 44.984)"/>
<path fill="none" stroke-width="0.3985" stroke-linecap="butt" stroke-linejoin="miter" stroke="rgb(0%, 0%, 0%)" stroke-opacity="1" stroke-miterlimit="10" d="M 23.839156 37.148063 L 96.069625 -17.105844 " transform="matrix(1, 0, 0, -1, 24.821, 44.984)"/>
<path fill="none" stroke-width="0.3985" stroke-linecap="butt" stroke-linejoin="miter" stroke="rgb(0%, 0%, 0%)" stroke-opacity="1" stroke-miterlimit="10" d="M 87.081344 -56.219125 L 32.71025 16.132438 " transform="matrix(1, 0, 0, -1, 24.821, 44.984)"/>
<path fill="none" stroke-width="0.3985" stroke-linecap="butt" stroke-linejoin="miter" stroke="rgb(0%, 0%, 0%)" stroke-opacity="1" stroke-miterlimit="10" d="M 2.179 4.382438 L 17.745406 35.706656 " transform="matrix(1, 0, 0, -1, 24.821, 44.984)"/>
<path fill="none" stroke-width="0.3985" stroke-linecap="butt" stroke-linejoin="miter" stroke="rgb(0%, 0%, 0%)" stroke-opacity="1" stroke-miterlimit="10" d="M 85.124313 -60.133187 L 44.8665 -60.133187 " transform="matrix(1, 0, 0, -1, 24.821, 44.984)"/>
<path fill="none" stroke-width="0.3985" stroke-linecap="butt" stroke-linejoin="miter" stroke="rgb(0%, 0%, 0%)" stroke-opacity="1" stroke-miterlimit="10" d="M 59.905563 15.148063 L 60.003219 -35.191781 " transform="matrix(1, 0, 0, -1, 24.821, 44.984)"/>
<path fill="none" stroke-width="0.3985" stroke-linecap="butt" stroke-linejoin="miter" stroke="rgb(0%, 0%, 0%)" stroke-opacity="1" stroke-miterlimit="10" d="M 56.444625 16.573844 L 23.495406 -16.570687 " transform="matrix(1, 0, 0, -1, 24.821, 44.984)"/>
<path fill="none" stroke-width="0.3985" stroke-linecap="butt" stroke-linejoin="miter" stroke="rgb(0%, 0%, 0%)" stroke-opacity="1" stroke-miterlimit="10" d="M 55.518844 22.237906 L 24.300094 37.894156 " transform="matrix(1, 0, 0, -1, 24.821, 44.984)"/>
<path fill="none" stroke-width="0.3985" stroke-linecap="butt" stroke-linejoin="miter" stroke="rgb(0%, 0%, 0%)" stroke-opacity="1" stroke-miterlimit="10" d="M 62.784469 16.093375 L 107.057906 -44.437875 " transform="matrix(1, 0, 0, -1, 24.821, 44.984)"/>
<path fill="none" stroke-width="0.3985" stroke-linecap="butt" stroke-linejoin="miter" stroke="rgb(0%, 0%, 0%)" stroke-opacity="1" stroke-miterlimit="10" d="M 58.714156 15.292594 L 41.151656 -55.383187 " transform="matrix(1, 0, 0, -1, 24.821, 44.984)"/>
<path fill="none" stroke-width="0.3985" stroke-linecap="butt" stroke-linejoin="miter" stroke="rgb(0%, 0%, 0%)" stroke-opacity="1" stroke-miterlimit="10" d="M 105.1165 -47.586312 L 64.843063 -40.891 " transform="matrix(1, 0, 0, -1, 24.821, 44.984)"/>
<path fill="none" stroke-width="0.3985" stroke-linecap="butt" stroke-linejoin="miter" stroke="rgb(0%, 0%, 0%)" stroke-opacity="1" stroke-miterlimit="10" d="M 105.729781 -50.875375 L 94.237594 -57.648812 " transform="matrix(1, 0, 0, -1, 24.821, 44.984)"/>
<path fill="none" stroke-width="0.3985" stroke-linecap="butt" stroke-linejoin="miter" stroke="rgb(0%, 0%, 0%)" stroke-opacity="1" stroke-miterlimit="10" d="M 24.940719 -20.043344 L 95.089156 -20.043344 " transform="matrix(1, 0, 0, -1, 24.821, 44.984)"/>
<path fill="none" stroke-width="0.3985" stroke-linecap="butt" stroke-linejoin="miter" stroke="rgb(0%, 0%, 0%)" stroke-opacity="1" stroke-miterlimit="10" d="M 95.608688 -22.238656 L 64.389938 -37.894906 " transform="matrix(1, 0, 0, -1, 24.821, 44.984)"/>
</svg>
