<?xml version="1.0" encoding="UTF-8"?>
<svg xmlns="http://www.w3.org/2000/svg" xmlns:xlink="http://www.w3.org/1999/xlink" width="66.484" height="66.484" viewBox="0 0 66.484 66.484">
<defs>
<clipPath id="clip-0">
<path clip-rule="nonzero" d="M 0 56 L 10 56 L 10 66.484375 L 0 66.484375 Z M 0 56 "/>
</clipPath>
<clipPath id="clip-1">
<path clip-rule="nonzero" d="M 0 51 L 16 51 L 16 66.484375 L 0 66.484375 Z M 0 51 "/>
</clipPath>
<clipPath id="clip-2">
<path clip-rule="nonzero" d="M 56 56 L 66.484375 56 L 66.484375 66.484375 L 56 66.484375 Z M 56 56 "/>
</clipPath>
<clipPath id="clip-3">
<path clip-rule="nonzero" d="M 51 51 L 66.484375 51 L 66.484375 66.484375 L 51 66.484375 Z M 51 51 "/>
</clipPath>
</defs>
<path fill-rule="nonzero" fill="rgb(43.528748%, 3.921509%, 9.803772%)" fill-opacity="1" stroke-width="0.3985" stroke-linecap="butt" stroke-linejoin="miter" stroke="rgb(0%, 0%, 0%)" stroke-opacity="1" stroke-miterlimit="10" d="M 4.6955 28.347469 C 4.6955 30.941219 2.593937 33.042781 0.0001875 33.042781 C -2.593563 33.042781 -4.695125 30.941219 -4.695125 28.347469 C -4.695125 25.753719 -2.593563 23.652156 0.0001875 23.652156 C 2.593937 23.652156 4.6955 25.753719 4.6955 28.347469 Z M 4.6955 28.347469 " transform="matrix(1, 0, 0, -1, 33.242, 33.242)"/>
<g clip-path="url(#clip-0)">
<path fill-rule="nonzero" fill="rgb(43.528748%, 3.921509%, 9.803772%)" fill-opacity="1" d="M 9.589844 61.589844 C 9.589844 58.996094 7.488281 56.890625 4.894531 56.890625 C 2.300781 56.890625 0.199219 58.996094 0.199219 61.589844 C 0.199219 64.183594 2.300781 66.285156 4.894531 66.285156 C 7.488281 66.285156 9.589844 64.183594 9.589844 61.589844 Z M 9.589844 61.589844 "/>
</g>
<g clip-path="url(#clip-1)">
<path fill="none" stroke-width="0.3985" stroke-linecap="butt" stroke-linejoin="miter" stroke="rgb(0%, 0%, 0%)" stroke-opacity="1" stroke-miterlimit="10" d="M -23.652156 -28.347844 C -23.652156 -25.754094 -25.753719 -23.648625 -28.347469 -23.648625 C -30.941219 -23.648625 -33.042781 -25.754094 -33.042781 -28.347844 C -33.042781 -30.941594 -30.941219 -33.043156 -28.347469 -33.043156 C -25.753719 -33.043156 -23.652156 -30.941594 -23.652156 -28.347844 Z M -23.652156 -28.347844 " transform="matrix(1, 0, 0, -1, 33.242, 33.242)"/>
</g>
<g clip-path="url(#clip-2)">
<path fill-rule="nonzero" fill="rgb(43.528748%, 3.921509%, 9.803772%)" fill-opacity="1" d="M 66.285156 61.589844 C 66.285156 58.996094 64.183594 56.890625 61.589844 56.890625 C 58.996094 56.890625 56.890625 58.996094 56.890625 61.589844 C 56.890625 64.183594 58.996094 66.285156 61.589844 66.285156 C 64.183594 66.285156 66.285156 64.183594 66.285156 61.589844 Z M 66.285156 61.589844 "/>
</g>
<g clip-path="url(#clip-3)">
<path fill="none" stroke-width="0.3985" stroke-linecap="butt" stroke-linejoin="miter" stroke="rgb(0%, 0%, 0%)" stroke-opacity="1" stroke-miterlimit="10" d="M 33.043156 -28.347844 C 33.043156 -25.754094 30.941594 -23.648625 28.347844 -23.648625 C 25.754094 -23.648625 23.648625 -25.754094 23.648625 -28.347844 C 23.648625 -30.941594 25.754094 -33.043156 28.347844 -33.043156 C 30.941594 -33.043156 33.043156 -30.941594 33.043156 -28.347844 Z M 33.043156 -28.347844 " transform="matrix(1, 0, 0, -1, 33.242, 33.242)"/>
</g>
<path fill="none" stroke-width="0.3985" stroke-linecap="butt" stroke-linejoin="miter" stroke="rgb(0%, 0%, 0%)" stroke-opacity="1" stroke-miterlimit="10" d="M 0.0001875 -0.0001875 L 0.0001875 23.452938 " transform="matrix(1, 0, 0, -1, 33.242, 33.242)"/>
<path fill="none" stroke-width="0.3985" stroke-linecap="butt" stroke-linejoin="miter" stroke="rgb(0%, 0%, 0%)" stroke-opacity="1" stroke-miterlimit="10" d="M 0.0001875 -0.0001875 L -24.886531 -24.886906 " transform="matrix(1, 0, 0, -1, 33.242, 33.242)"/>
<path fill="none" stroke-width="0.3985" stroke-linecap="butt" stroke-linejoin="miter" stroke="rgb(0%, 0%, 0%)" stroke-opacity="1" stroke-miterlimit="10" d="M 0.0001875 -0.0001875 L 24.886906 -24.886906 " transform="matrix(1, 0, 0, -1, 33.242, 33.242)"/>
</svg>
