<?xml version="1.0" encoding="UTF-8"?>
<svg xmlns="http://www.w3.org/2000/svg" xmlns:xlink="http://www.w3.org/1999/xlink" width="140.209" height="110.559" viewBox="0 0 140.209 110.559">
<defs>
<clipPath id="clip-0">
<path clip-rule="nonzero" d="M 0 59 L 32 59 L 32 110.558594 L 0 110.558594 Z M 0 59 "/>
</clipPath>
<clipPath id="clip-1">
<path clip-rule="nonzero" d="M 105 94 L 126 94 L 126 110.558594 L 105 110.558594 Z M 105 94 "/>
</clipPath>
<clipPath id="clip-2">
<path clip-rule="nonzero" d="M 39 79 L 92 79 L 92 110.558594 L 39 110.558594 Z M 39 79 "/>
</clipPath>
<clipPath id="clip-3">
<path clip-rule="nonzero" d="M 99 39 L 140.210938 39 L 140.210938 91 L 99 91 Z M 99 39 "/>
</clipPath>
<clipPath id="clip-4">
<path clip-rule="nonzero" d="M 130 88 L 140.210938 88 L 140.210938 99 L 130 99 Z M 130 88 "/>
</clipPath>
<clipPath id="clip-5">
<path clip-rule="nonzero" d="M 124 83 L 140.210938 83 L 140.210938 104 L 124 104 Z M 124 83 "/>
</clipPath>
<clipPath id="clip-6">
<path clip-rule="nonzero" d="M 26 48 L 85 48 L 85 110.558594 L 26 110.558594 Z M 26 48 "/>
</clipPath>
</defs>
<path fill-rule="nonzero" fill="rgb(43.528748%, 3.921509%, 9.803772%)" fill-opacity="1" stroke-width="0.3985" stroke-linecap="butt" stroke-linejoin="miter" stroke="rgb(0%, 0%, 0%)" stroke-opacity="1" stroke-miterlimit="10" d="M 4.697406 -0.000375 C 4.697406 2.593375 2.591938 4.694938 -0.0018125 4.694938 C -2.595562 4.694938 -4.697125 2.593375 -4.697125 -0.000375 C -4.697125 -2.594125 -2.595562 -4.695687 -0.0018125 -4.695687 C 2.591938 -4.695687 4.697406 -2.594125 4.697406 -0.000375 Z M 4.697406 -0.000375 " transform="matrix(1, 0, 0, -1, 25.369, 44.984)"/>
<path fill-rule="nonzero" fill="rgb(0%, 40.391541%, 47.059631%)" fill-opacity="1" stroke-width="1.49442" stroke-linecap="butt" stroke-linejoin="miter" stroke="rgb(100%, 50%, 0%)" stroke-opacity="1" stroke-miterlimit="10" d="M 34.466938 20.042594 C 34.466938 22.636344 32.361469 24.741813 29.767719 24.741813 C 27.173969 24.741813 25.072406 22.636344 25.072406 20.042594 C 25.072406 17.448844 27.173969 15.347281 29.767719 15.347281 C 32.361469 15.347281 34.466938 17.448844 34.466938 20.042594 Z M 34.466938 20.042594 " transform="matrix(1, 0, 0, -1, 25.369, 44.984)"/>
<path fill-rule="nonzero" fill="rgb(100%, 50%, 0%)" fill-opacity="1" stroke-width="0.3985" stroke-linecap="butt" stroke-linejoin="miter" stroke="rgb(0%, 0%, 0%)" stroke-opacity="1" stroke-miterlimit="10" d="M 24.740375 -20.043344 C 24.740375 -17.449594 22.638813 -15.348031 20.045063 -15.348031 C 17.451313 -15.348031 15.34975 -17.449594 15.34975 -20.043344 C 15.34975 -22.637094 17.451313 -24.738656 20.045063 -24.738656 C 22.638813 -24.738656 24.740375 -22.637094 24.740375 -20.043344 Z M 24.740375 -20.043344 " transform="matrix(1, 0, 0, -1, 25.369, 44.984)"/>
<path fill-rule="nonzero" fill="rgb(43.528748%, 3.921509%, 9.803772%)" fill-opacity="1" stroke-width="0.3985" stroke-linecap="butt" stroke-linejoin="miter" stroke="rgb(0%, 0%, 0%)" stroke-opacity="1" stroke-miterlimit="10" d="M -5.505719 40.089469 C -5.505719 42.683219 -7.607281 44.784781 -10.201031 44.784781 C -12.794781 44.784781 -14.896344 42.683219 -14.896344 40.089469 C -14.896344 37.495719 -12.794781 35.39025 -10.201031 35.39025 C -7.607281 35.39025 -5.505719 37.495719 -5.505719 40.089469 Z M -5.505719 40.089469 " transform="matrix(1, 0, 0, -1, 25.369, 44.984)"/>
<path fill-rule="nonzero" fill="rgb(43.528748%, 3.921509%, 9.803772%)" fill-opacity="1" stroke-width="0.3985" stroke-linecap="butt" stroke-linejoin="miter" stroke="rgb(0%, 0%, 0%)" stroke-opacity="1" stroke-miterlimit="10" d="M 24.623188 40.089469 C 24.623188 42.683219 22.517719 44.784781 19.923969 44.784781 C 17.330219 44.784781 15.228656 42.683219 15.228656 40.089469 C 15.228656 37.495719 17.330219 35.39025 19.923969 35.39025 C 22.517719 35.39025 24.623188 37.495719 24.623188 40.089469 Z M 24.623188 40.089469 " transform="matrix(1, 0, 0, -1, 25.369, 44.984)"/>
<path fill-rule="nonzero" fill="rgb(0%, 40.391541%, 47.059631%)" fill-opacity="1" d="M 10.140625 85.074219 C 10.140625 82.480469 8.039062 80.375 5.445312 80.375 C 2.851562 80.375 0.746094 82.480469 0.746094 85.074219 C 0.746094 87.667969 2.851562 89.769531 5.445312 89.769531 C 8.039062 89.769531 10.140625 87.667969 10.140625 85.074219 Z M 10.140625 85.074219 "/>
<g clip-path="url(#clip-0)">
<path fill="none" stroke-width="1.49442" stroke-linecap="butt" stroke-linejoin="miter" stroke="rgb(100%, 50%, 0%)" stroke-opacity="1" stroke-miterlimit="10" d="M -15.228375 -40.090219 C -15.228375 -37.496469 -17.329937 -35.391 -19.923687 -35.391 C -22.517437 -35.391 -24.622906 -37.496469 -24.622906 -40.090219 C -24.622906 -42.683969 -22.517437 -44.785531 -19.923687 -44.785531 C -17.329937 -44.785531 -15.228375 -42.683969 -15.228375 -40.090219 Z M -15.228375 -40.090219 " transform="matrix(1, 0, 0, -1, 25.369, 44.984)"/>
</g>
<path fill-rule="nonzero" fill="rgb(43.528748%, 3.921509%, 9.803772%)" fill-opacity="1" stroke-width="0.3985" stroke-linecap="butt" stroke-linejoin="miter" stroke="rgb(0%, 0%, 0%)" stroke-opacity="1" stroke-miterlimit="10" d="M 64.709125 -40.090219 C 64.709125 -37.496469 62.607563 -35.391 60.013813 -35.391 C 57.420063 -35.391 55.3185 -37.496469 55.3185 -40.090219 C 55.3185 -42.683969 57.420063 -44.785531 60.013813 -44.785531 C 62.607563 -44.785531 64.709125 -42.683969 64.709125 -40.090219 Z M 64.709125 -40.090219 " transform="matrix(1, 0, 0, -1, 25.369, 44.984)"/>
<path fill-rule="nonzero" fill="rgb(43.528748%, 3.921509%, 9.803772%)" fill-opacity="1" d="M 120.085938 105.117188 C 120.085938 102.523438 117.984375 100.421875 115.390625 100.421875 C 112.796875 100.421875 110.695312 102.523438 110.695312 105.117188 C 110.695312 107.710938 112.796875 109.8125 115.390625 109.8125 C 117.984375 109.8125 120.085938 107.710938 120.085938 105.117188 Z M 120.085938 105.117188 "/>
<g clip-path="url(#clip-1)">
<path fill="none" stroke-width="0.3985" stroke-linecap="butt" stroke-linejoin="miter" stroke="rgb(0%, 0%, 0%)" stroke-opacity="1" stroke-miterlimit="10" d="M 94.716938 -60.133187 C 94.716938 -57.539437 92.615375 -55.437875 90.021625 -55.437875 C 87.427875 -55.437875 85.326313 -57.539437 85.326313 -60.133187 C 85.326313 -62.726937 87.427875 -64.8285 90.021625 -64.8285 C 92.615375 -64.8285 94.716938 -62.726937 94.716938 -60.133187 Z M 94.716938 -60.133187 " transform="matrix(1, 0, 0, -1, 25.369, 44.984)"/>
</g>
<path fill-rule="nonzero" fill="rgb(0%, 40.391541%, 47.059631%)" fill-opacity="1" d="M 70.035156 105.117188 C 70.035156 102.523438 67.933594 100.421875 65.339844 100.421875 C 62.746094 100.421875 60.640625 102.523438 60.640625 105.117188 C 60.640625 107.710938 62.746094 109.8125 65.339844 109.8125 C 67.933594 109.8125 70.035156 107.710938 70.035156 105.117188 Z M 70.035156 105.117188 "/>
<g clip-path="url(#clip-2)">
<path fill="none" stroke-width="1.49442" stroke-linecap="butt" stroke-linejoin="miter" stroke="rgb(100%, 50%, 0%)" stroke-opacity="1" stroke-miterlimit="10" d="M 44.666156 -60.133187 C 44.666156 -57.539437 42.564594 -55.437875 39.970844 -55.437875 C 37.377094 -55.437875 35.271625 -57.539437 35.271625 -60.133187 C 35.271625 -62.726937 37.377094 -64.8285 39.970844 -64.8285 C 42.564594 -64.8285 44.666156 -62.726937 44.666156 -60.133187 Z M 44.666156 -60.133187 " transform="matrix(1, 0, 0, -1, 25.369, 44.984)"/>
</g>
<path fill-rule="nonzero" fill="rgb(0%, 40.391541%, 47.059631%)" fill-opacity="1" d="M 130.050781 65.027344 C 130.050781 62.433594 127.945312 60.332031 125.351562 60.332031 C 122.757812 60.332031 120.65625 62.433594 120.65625 65.027344 C 120.65625 67.621094 122.757812 69.722656 125.351562 69.722656 C 127.945312 69.722656 130.050781 67.621094 130.050781 65.027344 Z M 130.050781 65.027344 "/>
<g clip-path="url(#clip-3)">
<path fill="none" stroke-width="1.49442" stroke-linecap="butt" stroke-linejoin="miter" stroke="rgb(100%, 50%, 0%)" stroke-opacity="1" stroke-miterlimit="10" d="M 104.681781 -20.043344 C 104.681781 -17.449594 102.576313 -15.348031 99.982563 -15.348031 C 97.388813 -15.348031 95.28725 -17.449594 95.28725 -20.043344 C 95.28725 -22.637094 97.388813 -24.738656 99.982563 -24.738656 C 102.576313 -24.738656 104.681781 -22.637094 104.681781 -20.043344 Z M 104.681781 -20.043344 " transform="matrix(1, 0, 0, -1, 25.369, 44.984)"/>
</g>
<path fill-rule="nonzero" fill="rgb(43.528748%, 3.921509%, 9.803772%)" fill-opacity="1" stroke-width="0.3985" stroke-linecap="butt" stroke-linejoin="miter" stroke="rgb(0%, 0%, 0%)" stroke-opacity="1" stroke-miterlimit="10" d="M 64.591938 20.042594 C 64.591938 22.636344 62.490375 24.741813 59.896625 24.741813 C 57.302875 24.741813 55.197406 22.636344 55.197406 20.042594 C 55.197406 17.448844 57.302875 15.347281 59.896625 15.347281 C 62.490375 15.347281 64.591938 17.448844 64.591938 20.042594 Z M 64.591938 20.042594 " transform="matrix(1, 0, 0, -1, 25.369, 44.984)"/>
<g clip-path="url(#clip-4)">
<path fill-rule="nonzero" fill="rgb(43.528748%, 3.921509%, 9.803772%)" fill-opacity="1" d="M 140.011719 93.375 C 140.011719 90.78125 137.910156 88.679688 135.316406 88.679688 C 132.722656 88.679688 130.621094 90.78125 130.621094 93.375 C 130.621094 95.96875 132.722656 98.070312 135.316406 98.070312 C 137.910156 98.070312 140.011719 95.96875 140.011719 93.375 Z M 140.011719 93.375 "/>
</g>
<g clip-path="url(#clip-5)">
<path fill="none" stroke-width="0.3985" stroke-linecap="butt" stroke-linejoin="miter" stroke="rgb(0%, 0%, 0%)" stroke-opacity="1" stroke-miterlimit="10" d="M 114.642719 -48.391 C 114.642719 -45.79725 112.541156 -43.695687 109.947406 -43.695687 C 107.353656 -43.695687 105.252094 -45.79725 105.252094 -48.391 C 105.252094 -50.98475 107.353656 -53.086312 109.947406 -53.086312 C 112.541156 -53.086312 114.642719 -50.98475 114.642719 -48.391 Z M 114.642719 -48.391 " transform="matrix(1, 0, 0, -1, 25.369, 44.984)"/>
</g>
<path fill="none" stroke-width="0.3985" stroke-linecap="butt" stroke-linejoin="miter" stroke="rgb(0%, 0%, 0%)" stroke-opacity="1" stroke-miterlimit="10" d="M 4.798969 -0.961312 L 94.646625 -18.973031 " transform="matrix(1, 0, 0, -1, 25.369, 44.984)"/>
<path fill="none" stroke-width="0.3985" stroke-linecap="butt" stroke-linejoin="miter" stroke="rgb(0%, 0%, 0%)" stroke-opacity="1" stroke-miterlimit="10" d="M 30.455219 14.644156 L 39.283344 -54.73475 " transform="matrix(1, 0, 0, -1, 25.369, 44.984)"/>
<path fill="none" stroke-width="0.3985" stroke-linecap="butt" stroke-linejoin="miter" stroke="rgb(0%, 0%, 0%)" stroke-opacity="1" stroke-miterlimit="10" d="M -8.994 35.343375 L -1.208844 4.745719 " transform="matrix(1, 0, 0, -1, 25.369, 44.984)"/>
<path fill="none" stroke-width="0.3985" stroke-linecap="butt" stroke-linejoin="miter" stroke="rgb(0%, 0%, 0%)" stroke-opacity="1" stroke-miterlimit="10" d="M 22.084125 35.694938 L 27.369281 24.929313 " transform="matrix(1, 0, 0, -1, 25.369, 44.984)"/>
<path fill="none" stroke-width="1.49442" stroke-linecap="butt" stroke-linejoin="miter" stroke="rgb(100%, 50%, 0%)" stroke-opacity="1" stroke-miterlimit="10" d="M -15.060406 -37.648812 L 15.670063 -22.238656 " transform="matrix(1, 0, 0, -1, 25.369, 44.984)"/>
<path fill="none" stroke-width="0.3985" stroke-linecap="butt" stroke-linejoin="miter" stroke="rgb(0%, 0%, 0%)" stroke-opacity="1" stroke-miterlimit="10" d="M 3.463031 -3.461312 L 16.584125 -16.582406 " transform="matrix(1, 0, 0, -1, 25.369, 44.984)"/>
<path fill="none" stroke-width="1.49442" stroke-linecap="butt" stroke-linejoin="miter" stroke="rgb(100%, 50%, 0%)" stroke-opacity="1" stroke-miterlimit="10" d="M 21.197406 -15.285531 L 28.486469 14.753531 " transform="matrix(1, 0, 0, -1, 25.369, 44.984)"/>
<path fill="none" stroke-width="0.3985" stroke-linecap="butt" stroke-linejoin="miter" stroke="rgb(0%, 0%, 0%)" stroke-opacity="1" stroke-miterlimit="10" d="M 26.302875 15.847281 L -16.458844 -35.891 " transform="matrix(1, 0, 0, -1, 25.369, 44.984)"/>
<g clip-path="url(#clip-6)">
<path fill="none" stroke-width="1.49442" stroke-linecap="butt" stroke-linejoin="miter" stroke="rgb(100%, 50%, 0%)" stroke-opacity="1" stroke-miterlimit="10" d="M 22.22475 -24.426156 L 37.548969 -55.258187 " transform="matrix(1, 0, 0, -1, 25.369, 44.984)"/>
</g>
<path fill="none" stroke-width="0.3985" stroke-linecap="butt" stroke-linejoin="miter" stroke="rgb(0%, 0%, 0%)" stroke-opacity="1" stroke-miterlimit="10" d="M -5.826031 37.894156 L 24.904438 22.484 " transform="matrix(1, 0, 0, -1, 25.369, 44.984)"/>
<path fill="none" stroke-width="0.3985" stroke-linecap="butt" stroke-linejoin="miter" stroke="rgb(0%, 0%, 0%)" stroke-opacity="1" stroke-miterlimit="10" d="M 23.838031 37.148063 L 95.631 -16.773812 " transform="matrix(1, 0, 0, -1, 25.369, 44.984)"/>
<path fill="none" stroke-width="0.3985" stroke-linecap="butt" stroke-linejoin="miter" stroke="rgb(0%, 0%, 0%)" stroke-opacity="1" stroke-miterlimit="10" d="M 87.080219 -56.219125 L 33.041156 15.691031 " transform="matrix(1, 0, 0, -1, 25.369, 44.984)"/>
<path fill="none" stroke-width="0.3985" stroke-linecap="butt" stroke-linejoin="miter" stroke="rgb(0%, 0%, 0%)" stroke-opacity="1" stroke-miterlimit="10" d="M 2.177875 4.382438 L 17.748188 35.706656 " transform="matrix(1, 0, 0, -1, 25.369, 44.984)"/>
<path fill="none" stroke-width="0.3985" stroke-linecap="butt" stroke-linejoin="miter" stroke="rgb(0%, 0%, 0%)" stroke-opacity="1" stroke-miterlimit="10" d="M 85.127094 -60.133187 L 45.41225 -60.133187 " transform="matrix(1, 0, 0, -1, 25.369, 44.984)"/>
<path fill="none" stroke-width="0.3985" stroke-linecap="butt" stroke-linejoin="miter" stroke="rgb(0%, 0%, 0%)" stroke-opacity="1" stroke-miterlimit="10" d="M 59.904438 15.148063 L 60.006 -35.191781 " transform="matrix(1, 0, 0, -1, 25.369, 44.984)"/>
<path fill="none" stroke-width="0.3985" stroke-linecap="butt" stroke-linejoin="miter" stroke="rgb(0%, 0%, 0%)" stroke-opacity="1" stroke-miterlimit="10" d="M 56.4435 16.573844 L 23.494281 -16.570687 " transform="matrix(1, 0, 0, -1, 25.369, 44.984)"/>
<path fill="none" stroke-width="0.3985" stroke-linecap="butt" stroke-linejoin="miter" stroke="rgb(0%, 0%, 0%)" stroke-opacity="1" stroke-miterlimit="10" d="M 55.517719 22.237906 L 24.302875 37.894156 " transform="matrix(1, 0, 0, -1, 25.369, 44.984)"/>
<path fill="none" stroke-width="0.3985" stroke-linecap="butt" stroke-linejoin="miter" stroke="rgb(0%, 0%, 0%)" stroke-opacity="1" stroke-miterlimit="10" d="M 62.783344 16.093375 L 107.056781 -44.437875 " transform="matrix(1, 0, 0, -1, 25.369, 44.984)"/>
<path fill="none" stroke-width="0.3985" stroke-linecap="butt" stroke-linejoin="miter" stroke="rgb(0%, 0%, 0%)" stroke-opacity="1" stroke-miterlimit="10" d="M 58.713031 15.292594 L 41.283344 -54.851937 " transform="matrix(1, 0, 0, -1, 25.369, 44.984)"/>
<path fill="none" stroke-width="0.3985" stroke-linecap="butt" stroke-linejoin="miter" stroke="rgb(0%, 0%, 0%)" stroke-opacity="1" stroke-miterlimit="10" d="M 105.119281 -47.586312 L 64.841938 -40.891 " transform="matrix(1, 0, 0, -1, 25.369, 44.984)"/>
<path fill="none" stroke-width="0.3985" stroke-linecap="butt" stroke-linejoin="miter" stroke="rgb(0%, 0%, 0%)" stroke-opacity="1" stroke-miterlimit="10" d="M 105.728656 -50.875375 L 94.240375 -57.648812 " transform="matrix(1, 0, 0, -1, 25.369, 44.984)"/>
<path fill="none" stroke-width="1.49442" stroke-linecap="butt" stroke-linejoin="miter" stroke="rgb(100%, 50%, 0%)" stroke-opacity="1" stroke-miterlimit="10" d="M 24.939594 -20.043344 L 94.541156 -20.043344 " transform="matrix(1, 0, 0, -1, 25.369, 44.984)"/>
<path fill="none" stroke-width="0.3985" stroke-linecap="butt" stroke-linejoin="miter" stroke="rgb(0%, 0%, 0%)" stroke-opacity="1" stroke-miterlimit="10" d="M 95.119281 -22.48475 L 64.388813 -37.894906 " transform="matrix(1, 0, 0, -1, 25.369, 44.984)"/>
</svg>
